# xmcd CD database file
#
# Track frame offsets:
#	150
#	18514
#	37189
#	53891
#	88016
#	107113
#	128816
#	144033
#	160925
#	171350
#	189337
#	204099
#	225571
#	237601
#	253794
#	267886
#	283253
#	305821
#	319357
#	341361
#
# Disc length: 4785 seconds
#
# Revision: 1
# Processed by: cddbd v1.5.2PL0 Copyright (c) Steve Scherf et al.
# Submitted via: CDex 1.77
#
DISCID=2512af14
DTITLE=Musica Jazz (Magazine) - Ahmad Jamal Trio
DYEAR=1958
DGENRE=Jazz
TTITLE0=Ahmad's Blues
TTITLE1=It could happen to you
TTITLE2=I Wish Knew
TTITLE3=Autumn leaves
TTITLE4=Stompin' at the Savoy
TTITLE5=Cheek to cheek
TTITLE6=The girl next door
TTITLE7=Secret love
TTITLE8=Squatty roo
TTITLE9=Tater pie
TTITLE10=Taboo
TTITLE11=Autumn in New York
TTITLE12=A Gal in Calico
TTITLE13=That's all
TTITLE14=Should I?
TTITLE15=This can't be love
TTITLE16=Seleritus
TTITLE17=Let's fall in love
TTITLE18=Old devil moon
TTITLE19=You don't know what love is
EXTD=YEAR: 1958
EXTT0=
EXTT1=
EXTT2=
EXTT3=
EXTT4=
EXTT5=
EXTT6=
EXTT7=
EXTT8=
EXTT9=
EXTT10=
EXTT11=
EXTT12=
EXTT13=
EXTT14=
EXTT15=
EXTT16=
EXTT17=
EXTT18=
EXTT19=
PLAYORDER=
